<svg xmlns="http://www.w3.org/2000/svg" width="2242" height="2242" viewBox="0 0 2242 2242"><g transform="translate(138.5 529.5)"><g transform="translate(-138.5 -529.218)" opacity="0.19"><circle cx="1115.5" cy="1115.5" r="1115.5" transform="translate(5.5 5.218)" fill="none" stroke="#000" stroke-miterlimit="10" stroke-width="11"/><path d="M163.806,302.193a.946.946,0,1,0-.946-.946.946.946,0,0,0,.946.946Z" transform="translate(-9.594 1372.975)" fill="#202e3b"/><path d="M207.1,1386.282,671.487,167.316,611.8,159.2a7492.657,7492.657,0,0,1-72.193,1329.284q-27.039,186.363-63.406,371.172c-6.151,31.432,40.558,56.984,55.632,23.456A7528.161,7528.161,0,0,1,1352.455,482.382q137.826-185.551,287.08-361.978L1588.7,90.8,970.736,1623.748l-175.751,436.2c-14.6,36.3,44.208,52.117,58.674,16.223l617.9-1533.154,175.751-436.2c11.289-28.052-31.905-52.184-50.9-29.607A7565.73,7565.73,0,0,0,682.235,1435.287q-107.749,205.362-202.79,417.14l55.564,23.456A7585.186,7585.186,0,0,0,676.286,542.34Q679.463,350.7,672.771,159.2c-1.217-35.691-47.791-39.544-59.755-8.112L148.425,1370.059c-13.925,36.637,44.816,52.455,58.674,16.223Z" transform="translate(-104.936 36.683)" fill="#202e3b"/><path d="M270.467,293.686A332.777,332.777,0,0,1,470.552,428.879c22.1,32.041,74.829,1.69,52.522-30.689A395.708,395.708,0,0,0,286.487,235.215c-38.125-8.923-54.077,49.684-16.223,58.674Z" transform="translate(484.475 992.802)" fill="#202e3b"/><path d="M1043.584,93.143Q740.008,841.3,436.5,1589.389l-172.1,424.1c-6.76,16.156,7.3,32.311,21.225,37.448a720.51,720.51,0,0,0,639.867-74.356c32.514-21.428,2.1-74.356-30.689-52.522a662.85,662.85,0,0,1-592.955,68.2l21.225,37.448Q626.649,1281.42,930.292,533.128l171.9-423.762c14.736-36.3-44.073-52.049-58.606-16.223Z" transform="translate(565.168 63.336)" fill="#202e3b"/><path d="M1012.212,125.03h0l-56.24-15.547c1.69-13.925.406-4.732-2.028.744-3.38,7.5-5.746,15.615-8.517,23.321-10.748,29.2-21.631,58.471-32.446,87.875Q857.214,371.486,800.636,521.28c-105.924,281-213.2,561.456-323.787,840.629-57.187,144.386-114.914,288.569-175.751,431.468-6.084,14.33-5.273,33.8,10.883,41.639,92.337,45.9,195.624,36.907,287.15-6.76,98.42-46.844,170.343-133.1,224.826-225.3C887.835,1494.8,935.355,1376.78,987.4,1262.88l167.5-366.508q97.744-213.74,195.421-427.547c16.156-35.353-36.232-66.312-52.522-30.756q-158.243,344.809-315.946,690.092c-50.157,109.777-99.029,220.161-150.875,329.127-45.492,95.717-97.542,193.258-178.793,263.626-82.67,71.72-206.845,112.616-309.929,61.31l10.883,41.572c115.86-271.94,223.068-547.531,329.4-823.527Q824.5,631.8,962.258,261.575q19.67-52.928,39.206-105.856c5.543-15.006,13.046-30.351,15.006-46.3,3.718-31.23-42.586-39.544-56.714-15.344h0c-15.75,35.488,36.637,66.447,52.522,30.689Z" transform="translate(766.477 104.25)" fill="#202e3b"/><path d="M325.39,426.164,479.172,226.687C503.1,195.727,450.24,165.377,426.649,196L272.867,395.475C249.006,426.434,301.8,456.785,325.39,426.164Z" transform="translate(589.147 698.904)" fill="#202e3b"/><path d="M509.275,697.864,426.6,880.713c-15.953,35.218,30.756,64.081,52.522,30.689L676.711,607.691c21.563-33.19-30.351-62.459-52.522-30.756L463.445,806.762l52.522,30.689,198.6-316.013-52.522-30.689-176.9,283.9,52.522,30.689L689.893,478.987c16.426-35.15-30.756-63.879-52.522-30.689L457.429,722.6c-21.563,32.919,30.959,63.2,52.522,30.756l201.167-303.44c21.766-32.784-30.756-63-52.522-30.689L457.834,717.6l52.522,30.689L738.562,385.1c17.98-28.661-25.552-63.946-47.791-36.84L386.588,719.5,434.378,756.4,707.333,396.655,651.768,373.2A937.159,937.159,0,0,1,451.48,722.131l42.991,43.059L811.093,369.751,763.3,332.844,579.913,630.673l52.522,30.689L816.028,311.754l-52.522-30.689L625.271,555.506l52.522,30.689L795.681,320c15.615-35.285-36.1-66.447-52.522-30.689L579.44,644.531l52.522,30.689L782.7,331.762,730.18,301.073l-40.22,93.351c-15.074,34.947,32.581,65.7,52.522,30.756l91.661-161.353-52.86-30.892L742.551,321.42c-15.412,35.15,35.42,66.447,52.522,30.689l72.869-152.227c16.764-34.947-31.567-64.352-52.522-30.689l-27.039,43.194L840.9,243.075l46.3-99.84-52.522-30.756-29,67.6c-14.939,34.947,32.311,65.568,52.522,30.689l19.2-33.122-52.522-30.689L635.613,594.036l55.564,23.456,45.289-143.44c11.83-37.448-46.709-53.266-58.674-16.156L599.246,700.771H657.92a161.015,161.015,0,0,1,38.665-163.245l-50.9-29.607-116,296.613,58.674,16.156,42.248-203.8c7.909-38.124-47.318-54.077-58.606-16.156L476.085,916.336l58.606,16.156,81.927-283.364L558.012,632.9,503.394,877.941H562a157.094,157.094,0,0,1,80.237-167.5L597.556,676.1,543.479,884.16l58.606,16.156,25.146-172.574-59.62-8.112a326.829,326.829,0,0,1-78.276,221.716l50.832,29.54,36.907-175.751L518.468,778.98l-45.087,247.808,59.755,8.044,23.591-248.349c3.785-39.409-55.9-37.922-60.837,0l-32.582,253.284h60.837L516.44,866.652c-1.757-39.206-58.809-39.138-60.837,0L443.774,1088.1c-2.1,39.476,57.187,38.327,60.837,0l21.9-229.828c3.245-34.271-52.117-41.234-59.755-8.111l-54.55,236.114H470.88L457.361,985.554c-4.056-29.81-53.2-28.255-58.674,0l-17.575,91.255,59.755,8.044,7.5-195.083-51.914,21.5a12.234,12.234,0,0,1-1.555,6.759l34.339,44.681q40.964-68,81.995-135.936L455.67,803.315l-85.306,224.014,58.674,16.156L498.8,791.756l-59.755-8.112L418.764,990.489H479.6l.879-191.3c0-28.931-42.856-42.991-56.646-15.345L321.289,989.07c-17.372,34.812,34.272,65.569,52.59,30.689l114.1-217.052c15.142-28.864-25.078-65.028-47.791-36.84L312.5,924.582l47.723,36.84,142.966-200.9-52.522-30.689L357.251,907.886l55.564,23.456,35.15-148.712-59.755-8.112c8.517,67.056-18.183,132.895-75.3,170.681l45.763,26.3,2.23-48.8c1.352-29.675-42.991-42.113-56.646-15.345l-46.1,90.241,55.632,23.456,8.044-43.6-59.62-7.706c6.151,59.485,39.071,111.331,94.635,136,24.4,10.883,61.31-13.925,41.572-41.572L322.168,957.3l-47.791,36.84,154.931,172.168c19.671,21.766,61.716-1.082,50.832-29.607l-47.318-124.377c-13.519-36.164-72.328-20.752-58.674,16.155l21.5,57.795a30.554,30.554,0,0,0,59.688-8.044l10.342-134.652c2.974-39.071-57.862-38.868-60.837,0l-10,134.314,59.755-8.111-21.428-57.795-58.674,16.156,47.318,124.377,50.832-29.607L317.707,950.81c-22.78-25.281-68.07,8.517-47.791,36.84l76.249,106.87L387.8,1052.88c-34.88-15.48-60.5-44.411-64.554-83.482-3.177-31.23-52.928-44.614-59.688-8.112l-8.112,43.667c-5.881,31.7,38.868,56.24,55.564,23.456L356.845,938.3,300.132,922.96l-2.231,48.8c-1.014,22.442,27.039,38.8,45.763,26.3a234.155,234.155,0,0,0,105.45-223.068c-3.988-31.229-51.17-44.546-59.755-8.112L354.277,915.592c-7.706,32.378,38.936,55.091,55.564,23.456L503.259,761c18.454-35.15-30.081-62.256-52.522-30.689L307.77,931.207c-19.806,27.85,26.092,63.811,47.791,36.84L483.251,809.4l-47.723-36.908L321.357,989.543l52.59,30.689L476.694,814.265,419.98,798.921l-.879,191.3c0,39.882,57.119,38.26,60.837,0l20.279-206.845c3.448-34.812-50.765-40.558-59.755-8.112l-70.1,252.067c-10.68,38.395,45.019,52.117,58.674,16.156l85.1-224.285c12.573-32.987-38.26-52.049-55.564-23.456l-82.13,136c-12.505,20.752,8.923,55.294,34.339,44.681,45.966-19.2,59.417-69.422,28.458-108.7-17.507-22.172-51.035-2.3-51.982,21.5l-7.5,195.421c-1.352,33.8,53.131,42.18,59.755,8.112l17.575-91.255H398.417l13.519,100.786c4.123,30.351,52.319,27.579,58.674,0l54.483-236.182-59.688-8.044L443.5,1087.9h60.837L516.17,866.45H455.334l7.706,173.114c1.758,40.22,55.9,37.922,60.837,0L556.458,786.28H495.621L472.03,1034.63c-3.245,33.8,53.6,41.842,59.755,8.112L576.8,794.933c6.76-38.057-50.562-54.753-58.606-16.156L481.291,954.528c-5.746,27.039,29.54,54.415,50.832,29.607a390.574,390.574,0,0,0,96.324-264.5c-.676-32.717-54.618-43.262-59.755-8.112L543.614,884.5c-5.475,37.583,48.534,55.159,58.606,16.156L656.3,692.592a30.756,30.756,0,0,0-44.681-34.339A218.877,218.877,0,0,0,503.462,894.435c5.881,29.337,52.252,28.661,58.606,0l54.618-244.969c8.517-38.124-47.723-54.077-58.606-16.223L476.153,916.674c-10.951,37.719,47.317,53.6,58.606,16.156l95.919-315.608-58.606-16.156-42.315,203.8c-8.112,38.936,44.546,52.32,58.674,16.156l116-296.613c11.492-29.269-30.824-50.021-50.833-29.607a222.46,222.46,0,0,0-54.077,222.46,30.689,30.689,0,0,0,58.674,0L736.737,474.39l-58.674-16.156L632.842,601.607c-10.207,32.176,41.977,55.564,55.564,23.456L877.676,177.98c14.8-34.88-32.243-65.636-52.522-30.689l-19.2,33.122L858.479,211.1l29-67.6c15.074-35.285-35.826-66.65-52.522-30.756l-46.439,99.908c-16.223,35.015,31.5,64.487,52.522,30.689l27.038-43.194-52.522-30.689L742.685,321.69l52.522,30.689,38.8-88.416c15.277-34.947-32.717-65.636-52.59-30.756L689.825,394.559l52.522,30.756L782.7,331.762c15.344-35.488-36.773-66.583-52.522-30.689L579.643,644.531c-15.48,35.353,36.029,66.515,52.522,30.689L795.884,320l-52.522-30.689L625.2,555.506c-15.479,35.083,34.609,66.244,52.522,30.689L815.96,311.754c17.575-34.812-34.2-65.5-52.522-30.689L579.913,630.673c-18.251,34.609,31.838,64.149,52.522,30.689L816.231,363.938c17.642-28.728-25.822-64.284-47.791-36.908L451.48,722.131c-23.929,29.878,16.156,72.6,42.991,43.059a1007.667,1007.667,0,0,0,215.9-375.633c11.221-35.488-36.232-48.94-55.564-23.456L381.856,725.917c-20.685,27.039,25.889,63.54,47.791,36.84L733.83,391.45,686.04,354.61l-228.205,363.2c-21.022,33.8,30.824,62.932,52.522,30.689L711.118,450.123,658.6,419.435,457.429,722.807l52.522,30.756L689.893,479.19,637.37,448.5,485.278,774.857c-16.358,35.015,31.432,64.487,52.522,30.689l176.9-283.9c20.752-33.325-31.7-63.811-52.522-30.689L463.445,806.83c-21.158,33.8,30.351,62.391,52.522,30.689L676.711,607.691l-52.522-30.756L426.6,880.712,479.127,911.4,561.8,728.553c16.02-35.353-36.435-66.38-52.522-30.689Z" transform="translate(520.648 201.296)" fill="#202e3b"/><path d="M340.16,318.114l11.829-45.628L292.3,264.375l-1.622,29.066c-1.217,21.834,20.279,31.838,38.463,29.337-16.629,2.3-28.052-11.018-15.682-24.673l50.832,29.54,7.233-41.572c2.771-16.156-4.326-32.784-21.293-37.381-14.6-4.056-34.542,4.935-37.381,21.225l-7.233,41.437a31.635,31.635,0,0,0,13.992,34.339,30.621,30.621,0,0,0,36.84-4.732,45.83,45.83,0,0,0,6.422-54.483c-10.545-18.995-29.337-25.416-49.886-22.51l38.53,29.337,1.622-29.066c1.893-34.474-51.238-40.963-59.755-8.044l-11.9,45.628a30.429,30.429,0,0,0,58.674,16.156Z" transform="translate(667.321 994.872)" fill="#202e3b"/></g></g></svg>