<svg xmlns="http://www.w3.org/2000/svg" width="85" height="85" viewBox="0 0 85 85"><path d="M78.929,32H6.052A6.1,6.1,0,0,0,0,38.128v72.743A6.1,6.1,0,0,0,6.052,117H78.929A6.114,6.114,0,0,0,85,110.872V38.128A6.114,6.114,0,0,0,78.929,32ZM25.69,104.857h-12.6V64.292H25.709v40.565Zm-6.3-46.1a7.3,7.3,0,1,1,7.3-7.3A7.308,7.308,0,0,1,19.391,58.752Zm53.523,46.1h-12.6V85.125c0-4.705-.095-10.758-6.546-10.758-6.565,0-7.57,5.123-7.57,10.416v20.074H33.6V64.292H45.688v5.54h.171c1.689-3.187,5.806-6.546,11.934-6.546,12.75,0,15.122,8.405,15.122,19.334Z" transform="translate(0 -32)" fill="#fff"/></svg>