<svg xmlns="http://www.w3.org/2000/svg" width="85" height="85" viewBox="0 0 85 85">
  <path id="square-whatsapp" d="M42.5,49.228A25,25,0,0,0,21.307,87.535l.588.949L19.372,97.7l9.468-2.485.911.55A24.941,24.941,0,0,0,42.481,99.26H42.5A24.814,24.814,0,0,0,60.183,56.57,24.815,24.815,0,0,0,42.5,49.228ZM57.2,84.973c-.626,1.765-3.624,3.358-5.066,3.567-2.391.36-4.25.171-9.012-1.878C35.594,83.4,30.661,75.809,30.281,75.316s-3.074-4.079-3.074-7.779a8.419,8.419,0,0,1,2.637-6.28,2.737,2.737,0,0,1,2.011-.949c.493,0,1.006,0,1.442.019.455.019,1.081-.171,1.689,1.29.626,1.5,2.125,5.2,2.315,5.578a1.328,1.328,0,0,1,.057,1.309c-1.442,2.884-2.979,2.77-2.2,4.1,2.9,4.99,5.806,6.717,10.227,8.936.759.379,1.2.323,1.632-.19.436-.493,1.878-2.2,2.372-2.941.493-.759,1.006-.626,1.689-.379s4.383,2.068,5.142,2.448,1.252.569,1.442.873A6.675,6.675,0,0,1,57.2,84.973ZM75.893,32H9.107A9.109,9.109,0,0,0,0,41.107v66.786A9.109,9.109,0,0,0,9.107,117H75.893A9.109,9.109,0,0,0,85,107.893V41.107A9.109,9.109,0,0,0,75.893,32ZM42.481,104.326A30.061,30.061,0,0,1,28.1,100.664l-15.956,4.193,4.269-15.6A30.144,30.144,0,1,1,72.857,74.253a30.367,30.367,0,0,1-30.376,30.073Z" transform="translate(0 -32)" fill="#fff"/>
</svg>
