<svg xmlns="http://www.w3.org/2000/svg" width="85" height="85" viewBox="0 0 85 85">
  <path id="square-envelope-solid" d="M12.143,32A12.154,12.154,0,0,0,0,44.143v60.714A12.154,12.154,0,0,0,12.143,117H72.857A12.154,12.154,0,0,0,85,104.857V44.143A12.154,12.154,0,0,0,72.857,32ZM41.362,77.479,12.181,58.638a6.064,6.064,0,0,1,6.033-5.388H66.786a6.064,6.064,0,0,1,6.033,5.388L43.638,77.479a2.068,2.068,0,0,1-2.277,0Zm5.578,5.1L72.857,65.848v23.83a6.065,6.065,0,0,1-6.071,6.071H18.214a6.065,6.065,0,0,1-6.071-6.071V65.848L38.06,82.583a8.183,8.183,0,0,0,8.879,0Z" transform="translate(0 -32)" fill="#fff"/>
</svg>
